<?xml version="1.0" standalone="no"?>
<!DOCTYPE svg PUBLIC "-//W3C//DTD SVG 20010904//EN"
 "http://www.w3.org/TR/2001/REC-SVG-20010904/DTD/svg10.dtd">
<svg version="1.0" xmlns="http://www.w3.org/2000/svg"
 width="456.000000pt" height="456.000000pt" viewBox="0 0 456.000000 456.000000"
 preserveAspectRatio="xMidYMid meet">
<metadata>
Created by potrace 1.14, written by Peter Selinger 2001-2017
</metadata>
<g transform="translate(0.000000,456.000000) scale(0.100000,-0.100000)"
fill="#000000" stroke="none">
<path d="M1548 4145 c-2 -1 -40 -5 -84 -9 -152 -11 -345 -82 -486 -177 -80
-54 -213 -186 -265 -264 -137 -204 -203 -428 -198 -672 1 -65 5 -131 9 -148
71 -319 239 -566 496 -733 46 -30 144 -86 218 -124 257 -132 349 -217 402
-377 115 -346 -156 -679 -535 -658 -122 7 -184 29 -291 103 -127 89 -213 230
-230 376 -4 33 -12 64 -18 69 -6 5 -36 27 -66 49 -127 91 -266 222 -345 324
-27 36 -53 65 -57 66 -4 0 -16 -26 -28 -57 -72 -190 -83 -437 -29 -646 124
-487 575 -838 1089 -851 138 -3 243 13 374 55 330 108 588 374 706 727 35 107
39 130 45 261 14 293 -98 585 -299 787 -112 112 -211 181 -421 292 -161 85
-237 137 -318 217 -58 58 -115 148 -137 217 -13 41 -16 154 -6 205 45 231 266
415 501 416 225 2 388 -87 521 -285 65 -97 177 -322 243 -488 29 -74 59 -148
66 -165 7 -16 45 -120 84 -230 150 -415 321 -873 357 -952 8 -17 14 -33 14
-36 0 -23 318 -759 348 -805 59 -92 190 -86 246 11 13 23 117 281 231 572 113
292 210 539 215 550 8 19 211 629 216 650 2 6 98 294 214 640 116 347 214 641
217 655 37 177 -69 358 -244 415 -45 15 -119 17 -627 18 -317 1 -576 -1 -576
-5 0 -4 18 -36 41 -70 56 -86 162 -307 190 -395 l23 -73 303 0 c211 0 303 -3
303 -11 0 -6 -109 -338 -241 -737 -133 -400 -278 -837 -322 -971 -45 -134 -83
-238 -85 -230 -6 21 -299 834 -509 1414 -137 378 -267 596 -464 779 -178 164
-400 267 -634 292 -67 7 -154 12 -157 9z"/>
</g>
</svg>
